<svg style="max-width:50px" xmlns="http://www.w3.org/2000/svg" viewBox="0 0 38 24"><path d="M34.447.5h.385c.105 0 .211.002.316.004.192.005.418.016.636.055.202.036.372.091.537.174.333.167.604.437.773.767.083.163.14.332.176.532.038.214.05.438.054.63.004.104.005.208.006.314v18.049c0 .104-.002.208-.006.313a4.202 4.202 0 01-.054.631 1.768 1.768 0 01-.95 1.298c-.169.085-.35.144-.536.175-.21.033-.422.051-.634.054-.106.003-.213.004-.32.004H3.384l-.381-.001c-.106 0-.212-.001-.315-.004a4.523 4.523 0 01-.636-.054 1.866 1.866 0 01-.538-.176 1.744 1.744 0 01-.773-.766 1.85 1.85 0 01-.176-.532 4.14 4.14 0 01-.055-.629 32.669 32.669 0 01-.005-.313V2.977c0-.104.002-.209.005-.314a4.22 4.22 0 01.055-.631A1.83 1.83 0 01.741 1.5c.169-.33.44-.598.773-.766.169-.084.35-.143.537-.174.21-.034.423-.052.636-.055.105-.002.211-.004.316-.004L3.388.5h31.059zm0-.5H3c-.109 0-.218.002-.327.005a4.98 4.98 0 00-.711.062c-.235.04-.463.115-.677.221A2.277 2.277 0 00.068 1.944a4.63 4.63 0 00-.063.705c-.003.108-.004.216-.005.324v18.055c0 .108.002.217.005.324.007.234.021.472.063.704a2.249 2.249 0 001.217 1.655c.216.109.438.18.676.222.234.042.474.056.711.062.11.003.219.004.328.004l.388.001h31.059l.388-.001c.109-.001.218-.002.327-.005.237-.006.477-.02.711-.062a2.38 2.38 0 00.677-.222 2.264 2.264 0 001.217-1.655 4.76 4.76 0 00.063-.704c.002-.108.004-.217.004-.324.002-.129.002-.256.002-.385V3.357c0-.128 0-.256-.002-.385 0-.108-.002-.215-.004-.323a4.76 4.76 0 00-.063-.705A2.261 2.261 0 0036.55.289a2.432 2.432 0 00-.677-.221 4.828 4.828 0 00-.711-.062c-.109-.004-.219-.005-.327-.006h-.388z"/><path d="M11.279 7.201c.349-.419.585-1.002.521-1.583-.504.021-1.115.334-1.474.752-.326.37-.607.964-.529 1.534.561.043 1.133-.284 1.482-.703zm1.45 3.687c-.011-1.257 1.034-1.861 1.083-1.891-.59-.85-1.505-.968-1.831-.981-.779-.077-1.522.455-1.917.455-.396 0-1.004-.443-1.652-.43-.85.012-1.633.49-2.071 1.243-.88 1.521-.224 3.769.636 4.999.421.602.921 1.279 1.581 1.254.635-.023.873-.406 1.64-.406.766-.001.982.406 1.651.395.682-.015 1.115-.615 1.533-1.221.481-.697.68-1.375.69-1.408-.013-.01-1.328-.507-1.343-2.009zM20.852 7.2a2.562 2.562 0 00-.976-.562c-.389-.128-.856-.193-1.389-.193a9.409 9.409 0 00-1.021.052c-.283.031-.564.07-.845.118l-.081.014v8.833h.814V11.74c.274.047.588.071.934.071.461 0 .892-.059 1.283-.173a2.874 2.874 0 001.028-.532c.292-.242.526-.543.687-.884.166-.35.252-.762.252-1.225 0-.383-.062-.728-.181-1.024a2.389 2.389 0 00-.505-.773zm-.748 3.374c-.418.347-1.01.523-1.76.523-.207 0-.402-.009-.581-.026a2.706 2.706 0 01-.409-.068V7.247a5.48 5.48 0 01.397-.055c.199-.021.437-.031.71-.031.314-.003.627.037.93.12.259.07.501.188.715.347.195.15.349.345.456.58.107.238.16.522.16.843.001.668-.208 1.18-.618 1.523zm6.297 4.061a20.9 20.9 0 01-.013-.751v-2.455c0-.291-.029-.588-.088-.883a2.226 2.226 0 00-.337-.822c-.165-.246-.397-.449-.687-.604s-.666-.232-1.119-.232c-.332 0-.655.042-.961.127-.32.091-.623.234-.896.423l-.066.045.274.638.1-.066a2.67 2.67 0 01.704-.332c.253-.079.516-.119.781-.119.339 0 .609.061.803.181.196.122.344.272.439.448.1.182.164.375.193.575.031.208.045.395.045.555v.071c-1.206-.006-2.148.193-2.773.593-.656.419-.99 1.016-.99 1.772 0 .218.04.438.117.654.079.22.199.416.355.584.157.17.36.309.604.412.242.104.527.157.846.157a2.378 2.378 0 001.876-.861h.031l.075.718h.786l-.021-.115a5.048 5.048 0 01-.078-.713zm-.827-1.258c0 .086-.02.204-.059.346a1.796 1.796 0 01-.22.432 1.67 1.67 0 01-.853.637c-.21.068-.431.102-.652.099-.146 0-.291-.024-.429-.072a1.02 1.02 0 01-.614-.577 1.35 1.35 0 01-.096-.539c0-.346.094-.627.277-.831.199-.219.447-.386.726-.488.315-.117.646-.192.98-.221.312-.03.626-.043.938-.041v1.255zm6.352-4.346l-1.52 4.091c-.095.247-.184.496-.264.738l-.113.345H30a15.374 15.374 0 00-.366-1.057L28.01 9.031h-.869l2.324 5.918c.061.143.07.208.07.234a.943.943 0 01-.071.236 4.222 4.222 0 01-.493.908 5.307 5.307 0 01-.508.605 2.823 2.823 0 01-.545.428 5.63 5.63 0 01-.514.267l-.088.039.282.682.09-.033c.073-.027.212-.09.422-.191.212-.104.446-.268.696-.489.223-.193.42-.414.587-.654.172-.244.343-.531.512-.849.167-.317.333-.679.495-1.074.163-.397.338-.842.518-1.319l1.877-4.708h-.869z"/></svg>