<?xml version="1.0" encoding="UTF-8" standalone="no"?>
<svg
   xmlns:dc="http://purl.org/dc/elements/1.1/"
   xmlns:cc="http://creativecommons.org/ns#"
   xmlns:rdf="http://www.w3.org/1999/02/22-rdf-syntax-ns#"
   xmlns:svg="http://www.w3.org/2000/svg"
   xmlns="http://www.w3.org/2000/svg"
   xmlns:sodipodi="http://sodipodi.sourceforge.net/DTD/sodipodi-0.dtd"
   xmlns:inkscape="http://www.inkscape.org/namespaces/inkscape"
   viewBox="0 0 38.999939 40"
   height="40"
   width="38.999939"
   xml:space="preserve"
   id="svg2"
   version="1.1"
   sodipodi:docname="logo-svg.svg"
   inkscape:version="0.92.1 r15371"><sodipodi:namedview
     pagecolor="#ffffff"
     bordercolor="#666666"
     borderopacity="1"
     objecttolerance="10"
     gridtolerance="10"
     guidetolerance="10"
     inkscape:pageopacity="0"
     inkscape:pageshadow="2"
     inkscape:window-width="1920"
     inkscape:window-height="1017"
     id="namedview27"
     showgrid="false"
     inkscape:zoom="11.313709"
     inkscape:cx="3.2619866"
     inkscape:cy="11.145719"
     inkscape:window-x="-8"
     inkscape:window-y="-8"
     inkscape:window-maximized="1"
     inkscape:current-layer="g10" /><metadata
     id="metadata8"><rdf:RDF><cc:Work
         rdf:about=""><dc:format>image/svg+xml</dc:format><dc:type
           rdf:resource="http://purl.org/dc/dcmitype/StillImage" /><dc:title></dc:title></cc:Work></rdf:RDF></metadata><defs
     id="defs6" /><g
     transform="matrix(1.3333333,0,0,-1.3333333,-2262.0892,1950.613)"
     id="g10"><path
       inkscape:connector-curvature="0"
       id="path20"
       style="fill:#49a1ff;fill-opacity:0.94117647;fill-rule:nonzero;stroke:none;stroke-width:0.0038686"
       d="m 1725.4202,1456.4838 c -0.017,0.1083 -0.5499,0.7256 -0.933,0.9566 -0.3404,0.1928 -0.7062,0.3805 -1.0424,0.4627 -0.6986,0.2271 -1.3641,0.2766 -2.0531,0.3178 -1.2723,0.031 -2.5853,-0.1079 -3.9278,-0.3497 v 2.5273 c 0,1.4147 -1.1312,2.5613 -2.5269,2.5613 h -9.6247 c -1.3952,0 -2.5265,-1.1466 -2.5265,-2.5609 v -8.2983 c -1.0971,-0.6793 -2.1722,-1.3967 -3.1663,-2.2329 -0.645,-0.5535 -1.273,-1.1249 -1.828,-1.8058 -0.5294,-0.6921 -1.1036,-1.438 -1.2104,-2.5849 -0.047,-0.2739 0.032,-0.5887 0.1075,-0.8845 l 0.03,-0.11 c -0.01,0.016 0.1176,-0.2457 0.077,-0.157 l 0.019,-0.031 0.075,-0.122 c 0.06,-0.088 0.077,-0.1468 0.1729,-0.2588 0.2058,-0.2201 0.493,-0.5098 0.6978,-0.6002 0.2123,-0.1043 0.4337,-0.2491 0.6411,-0.303 0.8496,-0.3127 1.628,-0.3365 2.381,-0.3718 1.4944,-0.011 2.85,0.1932 4.0858,0.4258 2.4615,0.5034 4.4334,1.1639 5.798,1.6598 0.6843,0.2423 1.2115,0.4601 1.5723,0.6051 0.3608,0.1446 0.553,0.2218 0.5514,0.2258 1.1654,0.4681 2.3224,0.9894 3.4353,1.5467 0.7531,0.3772 1.238,1.1455 1.238,1.9973 v 6.3942 c 1.3787,0.229 2.6759,0.338 3.8118,0.2714 0.5306,-0.046 1.0478,-0.1094 1.4094,-0.2496 0.2144,-0.083 0.5011,-0.1387 0.5645,-0.4012 0.072,-0.3007 -0.2605,-0.7182 -0.4246,-0.9394 -0.3393,-0.4577 -0.7159,-0.8273 -0.9503,-1.0485 -0.315,-0.2859 -0.521,-0.4713 -0.5406,-0.9247 -0.019,-0.4339 0.1476,-0.8693 0.468,-1.1606 0.2479,-0.2252 0.5891,-0.3751 0.923,-0.3852 0.4292,-0.013 0.6705,0.2477 0.961,0.5269 0.3151,0.3182 0.7458,0.7514 1.2491,1.4676 0.2456,0.3622 0.5142,0.793 0.7147,1.41 0.1926,0.5709 0.3282,1.568 -0.2297,2.4233 z m -24.5917,-12.2956 c -0.6418,0.045 -1.3308,0.1041 -1.8673,0.3311 -0.1521,0.04 -0.2353,0.1276 -0.3604,0.1811 -0.1369,0.068 -0.086,0.095 -0.1769,0.1064 -0.037,0.022 -0.092,0.148 -0.138,0.2172 l -0.044,0.077 2e-4,0.016 c 0,0.081 -0.05,0.1416 -0.011,0.2575 0.035,0.4176 0.412,1.0329 0.8696,1.5592 0.4653,0.5417 1.043,1.0425 1.639,1.5251 0.6417,0.5106 1.3327,0.9827 2.0466,1.4314 v -5.6436 c -0.6386,-0.056 -1.2947,-0.082 -1.9573,-0.058" /><path
       inkscape:connector-curvature="0"
       id="path24"
       style="fill:#11ade8;fill-opacity:1;fill-rule:nonzero;stroke:none;stroke-width:0.00334269"
       d="m 1702.7856,1439.7551 v -4.2344 c 0,-1.4144 1.1311,-2.5609 2.5267,-2.5609 h 9.6247 c 1.3956,0 2.5267,1.1466 2.5267,2.5609 v 7.8015 c 0,1.0948 -1.1139,1.817 -2.1,1.3708 -0.6461,-0.2925 -1.2889,-0.5661 -1.9187,-0.8192 -3.3251,-1.3393 -6.6121,-2.2533 -9.4204,-2.6479 -0.7164,-0.1007 -1.239,-0.7377 -1.239,-1.4708" /><path
       inkscape:connector-curvature="0"
       id="path28"
       style="fill:#49a1ff;fill-opacity:0.94117647;fill-rule:nonzero;stroke:none;stroke-width:0.00357384"
       d="m 1721.2061,1449.5913 c 0,0.7265 -0.5812,1.3151 -1.2979,1.3151 -0.7163,0 -1.2974,-0.5886 -1.2974,-1.3151 0,-0.7264 0.5811,-1.3154 1.2974,-1.3154 0.7167,0 1.2979,0.589 1.2979,1.3154" /><path
       inkscape:connector-curvature="0"
       id="path32"
       style="fill:#ffffff;fill-opacity:1;fill-rule:nonzero;stroke:none;stroke-width:0.00296878"
       d="m 1711.4101,1436.6199 c 0,0.7195 -0.5753,1.3028 -1.2854,1.3028 -0.7098,0 -1.2851,-0.5833 -1.2851,-1.3028 0,-0.7195 0.5753,-1.3028 1.2851,-1.3028 0.7101,0 1.2854,0.5833 1.2854,1.3028" /><path
       inkscape:connector-curvature="0"
       id="path36"
       style="fill:#ffffff;fill-opacity:1;fill-rule:nonzero;stroke:none;stroke-width:0.00312293"
       d="m 1712.3604,1460.4099 h -4.4714 c -0.1638,0 -0.2974,-0.1355 -0.2974,-0.3012 v 0 c 0,-0.166 0.1336,-0.3016 0.2974,-0.3016 h 4.4714 c 0.1635,0 0.2975,0.1356 0.2975,0.3016 v 0 c 0,0.1657 -0.134,0.3012 -0.2975,0.3012" /><path
       style="fill:#0dacef;fill-opacity:0.94117647;stroke:none;stroke-width:0.05780638;stroke-opacity:1"
       d="m 1704.6866,1433.0689 c -0.9361,0.2671 -1.6631,1.061 -1.8371,2.0059 -0.079,0.4277 -0.076,4.6308 0,5.0059 0.074,0.3496 0.3168,0.7064 0.6185,0.9088 0.1772,0.1188 0.4274,0.1836 1.2493,0.3234 3.1475,0.5352 6.6126,1.6008 10.0128,3.0791 0.5077,0.2207 0.9475,0.3738 1.1281,0.3927 0.5471,0.057 1.0966,-0.234 1.3873,-0.7353 l 0.1551,-0.2673 v -4.4231 -4.4231 l -0.1288,-0.3201 c -0.2598,-0.6458 -0.8131,-1.2066 -1.4502,-1.4699 l -0.3158,-0.1305 -5.2823,-0.01 c -4.1143,-0.01 -5.3395,0.01 -5.5407,0.064 z m 5.9301,2.3238 c 1.0894,0.4627 1.0427,2.1364 -0.069,2.474 -0.5323,0.1616 -1.0283,0.024 -1.3931,-0.3859 -0.5691,-0.6398 -0.3851,-1.6364 0.3728,-2.0192 0.3325,-0.168 0.7884,-0.1968 1.0894,-0.069 z"
       id="path29"
       inkscape:connector-curvature="0" /></g></svg>