<svg width="66" height="65" viewBox="0 0 66 65" fill="none" xmlns="http://www.w3.org/2000/svg">
<g clip-path="url(#clip0)">
<path d="M64.455 50.8509L48.6539 61.8645C47.9963 62.2841 47.2994 62.5509 46.5642 62.7413C45.9454 62.9317 45.2485 63.0081 44.5909 63.0081C44.5909 63.0081 38.0897 63.0081 33.0205 63.0081H27.0994C25.6296 63.0081 24.12 62.6649 22.7654 62.0168L7.73828 54.6619V32.5195H19.0508C20.9854 32.5195 22.843 33.0908 24.4296 34.1203L33.0205 39.7603L33.6011 40.1417H42.6945C44.823 40.1417 46.5642 41.8565 46.5642 43.9527C46.5642 46.049 44.823 47.7638 42.6945 47.7638H24.8939C23.8103 47.7638 22.9593 48.6019 22.9593 49.6691C22.9593 50.7363 23.7715 51.5367 24.8551 51.5749H47.0285C47.3382 51.5749 47.6479 51.4985 47.9575 51.3463L59.8114 44.7527C61.8235 43.3046 64.0683 43.9909 65.229 45.5149C66.506 47.192 66.158 49.5927 64.455 50.8509Z" fill="#FFBFAB"/>
<path d="M33.0222 2.03125C27.6816 2.03125 23.3477 6.29955 23.3477 11.5592C23.3477 16.8183 27.6816 21.0866 33.0222 21.0866C38.3622 21.0866 42.6962 16.8183 42.6962 11.5592C42.6962 6.29955 38.3622 2.03125 33.0222 2.03125Z" fill="#FFD400"/>
<path d="M46.5636 21.0869C42.3072 21.0869 38.8242 24.5166 38.8242 28.7091C38.8242 32.901 42.3072 36.3312 46.5636 36.3312C50.8201 36.3312 54.303 32.901 54.303 28.7091C54.303 24.5166 50.8201 21.0869 46.5636 21.0869Z" fill="#FFD400"/>
<path d="M5.80431 59.1976H1.9346C0.865585 59.1976 0 58.3451 0 57.2918V30.6143C0 29.5615 0.865585 28.709 1.9346 28.709H5.80431C9.00531 28.709 11.6091 31.2733 11.6091 34.4253V53.4807C11.6091 56.6332 9.00531 59.1976 5.80431 59.1976Z" fill="#4A696F"/>
<path d="M46.5664 36.3312V21.0869C50.8228 21.0869 54.3058 24.5166 54.3058 28.7091C54.3058 32.901 50.8228 36.3312 46.5664 36.3312Z" fill="#FDBF00"/>
<path d="M33.0234 21.0866V2.03125C38.3635 2.03125 42.6974 6.29955 42.6974 11.5592C42.6974 16.8183 38.3635 21.0866 33.0234 21.0866Z" fill="#FDBF00"/>
<path d="M42.6974 47.7642H33.0234V39.7607L33.604 40.1421H42.6974C44.8259 40.1421 46.5672 41.857 46.5672 43.9532C46.5672 46.0494 44.8259 47.7642 42.6974 47.7642Z" fill="#FFA78F"/>
<path d="M64.4579 50.8508L48.6568 61.8645C47.9992 62.284 47.3023 62.5508 46.5672 62.7413C45.9483 62.9317 45.2514 63.0081 44.5938 63.0081C44.5938 63.0081 38.0926 63.0081 33.0234 63.0081V51.5749H47.0314C47.3411 51.5749 47.6508 51.4985 47.9604 51.3457L59.8148 44.7526C61.8269 43.3046 64.0712 43.9904 65.2319 45.5148C66.5089 47.192 66.1609 49.5927 64.4579 50.8508Z" fill="#FFA78F"/>
</g>
</svg>
