<svg width="68" height="68" viewBox="0 0 68 68" fill="none" xmlns="http://www.w3.org/2000/svg">
<g clip-path="url(#clip0)">
<path d="M59.7617 41.8848C59.4933 42.2839 59.0392 42.5178 58.559 42.5178H45.0771C44.5748 42.5178 44.1097 42.2577 43.8385 41.8339C37.0807 31.2526 36.9336 9.27654 52.1325 11.7997C65.2195 13.9328 66.4457 31.978 59.7617 41.8848Z" fill="#685E68"/>
<path d="M58.5574 42.518H52.1309V11.7998C65.2179 13.9329 66.4441 31.9781 59.7601 41.8849C59.4918 42.284 59.0377 42.518 58.5574 42.518Z" fill="#40383F"/>
<path d="M61.1286 59.3781C60.9235 64.1974 56.9547 67.9996 52.1314 67.9996C47.3081 67.9996 43.3379 64.1973 43.1328 59.3781L43.642 53.0892C43.7025 52.331 44.3369 51.7461 45.0994 51.7461H59.1635C59.9245 51.7461 60.5589 52.331 60.6209 53.0892L61.1286 59.3781Z" fill="#685E68"/>
<path d="M60.6221 53.0892L61.13 59.3781C60.9249 64.1974 56.9561 67.9996 52.1328 67.9996V51.7461H59.1649C59.9258 51.7461 60.5601 52.331 60.6221 53.0892Z" fill="#40383F"/>
<path d="M24.162 30.2343C23.891 30.6581 23.4258 30.9182 22.9235 30.9182H9.44153C8.96129 30.9182 8.50719 30.6843 8.23881 30.2852C1.55484 20.3784 2.78103 2.33302 15.868 0.200095C31.0667 -2.32308 30.9196 19.6532 24.162 30.2343Z" fill="#685E68"/>
<path d="M22.9246 30.9182H15.8691V0.200095C31.0678 -2.32308 30.9207 19.6532 24.1631 30.2343C23.892 30.6581 23.4268 30.9182 22.9246 30.9182Z" fill="#40383F"/>
<path d="M24.8669 47.7785C24.6618 52.5978 20.6917 56.4001 15.8682 56.4001C11.0448 56.4001 7.07615 52.5978 6.87109 47.7785L7.37893 41.4896C7.44079 40.7314 8.07528 40.1465 8.8363 40.1465H22.9005C23.6628 40.1465 24.2972 40.7314 24.3578 41.4896L24.8669 47.7785Z" fill="#685E68"/>
<path d="M24.3566 41.4896L24.8658 47.7785C24.6608 52.5978 20.6906 56.4001 15.8672 56.4001V40.1465H22.8993C23.6617 40.1465 24.2961 40.7314 24.3566 41.4896Z" fill="#40383F"/>
</g>
</svg>
