<svg width="65" height="65" viewBox="0 0 65 65" fill="none" xmlns="http://www.w3.org/2000/svg">
<g clip-path="url(#clip0)">
<path d="M50.1573 1.27451V55.3328C50.1573 56.0364 49.5863 56.6074 48.8828 56.6074H10.5851C9.88025 56.6074 9.31055 56.0364 9.31055 55.3328V1.27451C9.31055 0.57098 9.88025 0 10.5851 0H48.8828C49.5863 0 50.1573 0.57098 50.1573 1.27451Z" fill="#A5E1E3"/>
<path d="M50.1584 1.27451V55.3328C50.1584 56.0364 49.5874 56.6074 48.8839 56.6074H29.7344V0H48.8839C49.5874 0 50.1584 0.57098 50.1584 1.27451Z" fill="#589B9E"/>
<path d="M42.0714 21.2578V63.7257C42.0714 64.4292 41.5004 65.0002 40.7969 65.0002H2.49912C1.79432 65.0002 1.22461 64.4292 1.22461 63.7257V9.66611C1.22461 8.96258 1.79432 8.3916 2.49912 8.3916H29.2065C29.39 8.3916 29.5697 8.43111 29.7341 8.50631C29.8718 8.56876 29.9979 8.6567 30.1076 8.76503L41.6979 20.3554C41.8076 20.465 41.8942 20.5912 41.9567 20.7289C42.0319 20.8933 42.0714 21.073 42.0714 21.2578Z" fill="#CAF5FF"/>
<path d="M42.0712 21.2578V63.7257C42.0712 64.4292 41.5003 65.0002 40.7967 65.0002H19.6348V8.3916H29.2063C29.3899 8.3916 29.5696 8.43111 29.734 8.50631C29.8716 8.56876 29.9978 8.6567 30.1074 8.76503L41.6978 20.3554C41.8074 20.465 41.8941 20.5912 41.9565 20.7289C42.0317 20.8933 42.0712 21.073 42.0712 21.2578Z" fill="#78C8DA"/>
<path d="M41.9569 20.7284H31.0089C30.3054 20.7284 29.7344 20.1587 29.7344 19.4539V8.50586C29.872 8.56831 29.9982 8.65625 30.1078 8.76458L41.6982 20.355C41.8078 20.4646 41.8945 20.5908 41.9569 20.7284Z" fill="#4A688B"/>
<path d="M15.7119 24.9632H7.90005C6.84424 24.9632 5.98828 24.1072 5.98828 23.0514C5.98828 21.9956 6.84424 21.1396 7.90005 21.1396H15.7119C16.7677 21.1396 17.6237 21.9956 17.6237 23.0514C17.6237 24.1072 16.7678 24.9632 15.7119 24.9632Z" fill="#44446B"/>
<path d="M35.5461 34.5026C35.5461 35.5579 34.6896 36.4144 33.6343 36.4144H7.90005C6.84348 36.4144 5.98828 35.5579 5.98828 34.5026C5.98828 33.446 6.84348 32.5908 7.90005 32.5908H33.6343C34.6896 32.5908 35.5461 33.446 35.5461 34.5026Z" fill="#44446B"/>
<path d="M33.634 36.4144H19.6348V32.5908H33.634C34.6893 32.5908 35.5457 33.446 35.5457 34.5026C35.5457 35.5579 34.6893 36.4144 33.634 36.4144Z" fill="#35355E"/>
<path d="M35.5461 43.1852C35.5461 44.2418 34.6896 45.097 33.6343 45.097H7.90005C6.84348 45.097 5.98828 44.2418 5.98828 43.1852C5.98828 42.1299 6.84348 41.2734 7.90005 41.2734H33.6343C34.6896 41.2734 35.5461 42.1299 35.5461 43.1852Z" fill="#44446B"/>
<path d="M35.5457 43.1852C35.5457 44.2418 34.6893 45.097 33.634 45.097H19.6348V41.2734H33.634C34.6893 41.2734 35.5457 42.1299 35.5457 43.1852Z" fill="#35355E"/>
<path d="M35.5461 51.8698C35.5461 52.9251 34.6896 53.7815 33.6343 53.7815H7.90005C6.84348 53.7815 5.98828 52.9251 5.98828 51.8698C5.98828 50.8132 6.84348 49.958 7.90005 49.958H33.6343C34.6896 49.958 35.5461 50.8132 35.5461 51.8698Z" fill="#44446B"/>
<path d="M35.5457 51.8698C35.5457 52.9251 34.6893 53.7815 33.634 53.7815H19.6348V49.958H33.634C34.6893 49.958 35.5457 50.8132 35.5457 51.8698Z" fill="#35355E"/>
<path d="M63.7765 16.9932V47.4654C63.7765 47.6477 63.7383 47.8274 63.6631 47.9931L60.4042 55.1622C60.1786 55.6605 59.7121 55.9103 59.2444 55.9103C58.7779 55.9103 58.3102 55.6605 58.0833 55.1622L54.8244 47.9931C54.7492 47.8274 54.7109 47.6477 54.7109 47.4654V16.9932H63.7765Z" fill="#44446B"/>
<path d="M63.7763 16.9932V47.4654C63.7763 47.6477 63.7381 47.8274 63.6629 47.9931L60.4039 55.1622C60.1784 55.6605 59.7119 55.9103 59.2441 55.9103V16.9932H63.7763Z" fill="#35355E"/>
<path d="M63.7765 11.8176V17.7734H54.7109V11.9081C54.7109 9.39604 56.7438 7.28545 59.2444 7.28418C61.7424 7.28418 63.7765 9.3132 63.7765 11.8176Z" fill="#CAF5FF"/>
<path d="M63.7763 11.8176V17.7734H59.2441V7.28418C61.7422 7.28418 63.7763 9.3132 63.7763 11.8176Z" fill="#78C8DA"/>
</g>
</svg>
