<svg width="67" height="67" viewBox="0 0 67 67" fill="none" xmlns="http://www.w3.org/2000/svg">
<g clip-path="url(#clip0)">
<path d="M53.4924 4.05284V55.6087L33.5001 59.3331L13.5078 55.6087V4.05284C13.5078 1.81426 15.3221 0 17.5607 0H49.4395C51.6781 0 53.4924 1.81426 53.4924 4.05284Z" fill="#DCF2EA"/>
<path d="M53.4923 4.05284V55.6087L33.5 59.3331V0H49.4394C51.678 0 53.4923 1.81426 53.4923 4.05284Z" fill="#B5E5D3"/>
<path d="M53.4924 55.6084V62.9469C53.4924 65.1855 51.6781 66.9997 49.4395 66.9997H17.5607C15.3221 66.9997 13.5078 65.1855 13.5078 62.9469V55.6084H53.4924Z" fill="#44446B"/>
<path d="M53.4923 55.6084V62.9469C53.4923 65.1855 51.678 66.9997 49.4394 66.9997H33.5V55.6084H53.4923Z" fill="#35355E"/>
<path d="M40.4589 5.25684C39.3706 5.25684 38.4883 6.13913 38.4883 7.22742V7.81111C38.4883 8.8994 39.3706 9.7817 40.4589 9.7817C41.5472 9.7817 42.4295 8.8994 42.4295 7.81111V7.22742C42.4295 6.13913 41.5473 5.25684 40.4589 5.25684Z" fill="#35355E"/>
<path d="M46.5136 5.25684C45.4253 5.25684 44.543 6.13913 44.543 7.22742V7.81111C44.543 8.8994 45.4253 9.7817 46.5136 9.7817C47.6019 9.7817 48.4842 8.8994 48.4842 7.81111V7.22742C48.4842 6.13913 47.6019 5.25684 46.5136 5.25684Z" fill="#35355E"/>
<path d="M38.5756 61.3036C38.5756 62.3927 37.6928 63.2742 36.605 63.2742H30.3964C29.3086 63.2742 28.4258 62.3927 28.4258 61.3036C28.4258 60.2158 29.3086 59.333 30.3964 59.333H36.605C37.6928 59.333 38.5756 60.2158 38.5756 61.3036Z" fill="#DCF2EA"/>
<path d="M38.5749 61.3036C38.5749 62.3927 37.6921 63.2742 36.6043 63.2742H33.5V59.333H36.6043C37.6921 59.333 38.5749 60.2158 38.5749 61.3036Z" fill="#B5E5D3"/>
<path d="M49.0445 25.4192V41.5819C49.0445 42.0963 48.8343 42.5625 48.4969 42.8988C48.1605 43.2315 47.6993 43.4367 47.19 43.4367H19.8077C19.2982 43.4367 18.8371 43.2315 18.5008 42.8988C18.1633 42.5625 17.9531 42.0964 17.9531 41.5819V25.4192C17.9531 24.8715 18.1905 24.3794 18.5677 24.0405C18.8966 23.7451 19.3317 23.5645 19.8078 23.5645H47.1901C47.6662 23.5645 48.1013 23.745 48.4302 24.0405C48.8072 24.3794 49.0445 24.8715 49.0445 25.4192Z" fill="#5DA5B5"/>
<path d="M49.0457 25.419V41.5818C49.0457 42.0961 48.8355 42.5624 48.498 42.8987C48.1617 43.2313 47.7005 43.4365 47.1911 43.4365H33.5V23.5645H47.1911C47.6672 23.5645 48.1023 23.745 48.4313 24.0405C48.8083 24.3792 49.0457 24.8713 49.0457 25.419Z" fill="#5DA5B5"/>
<path d="M48.4999 42.8984C48.1636 43.231 47.7024 43.4362 47.193 43.4362H19.8108C19.3013 43.4362 18.8402 43.231 18.5039 42.8984L29.2745 32.3218L33.5019 28.1699L37.7294 32.322L48.4999 42.8984Z" fill="#80C7D7"/>
<path d="M48.498 42.8984C48.1617 43.231 47.7005 43.4362 47.1911 43.4362H33.5V28.1699L37.7274 32.322L48.498 42.8984Z" fill="#317888"/>
<path d="M48.4329 24.0405L34.6367 34.7147C34.3028 34.9731 33.9021 35.1029 33.5016 35.1029C33.101 35.1029 32.7004 34.9731 32.3665 34.7147L18.5703 24.0405C18.8993 23.7451 19.3344 23.5645 19.8105 23.5645H47.1927C47.6687 23.5646 48.1039 23.7451 48.4329 24.0405Z" fill="#CAF5FF"/>
<path d="M48.4313 24.0405L34.6351 34.7147C34.3012 34.9731 33.9006 35.1029 33.5 35.1029V23.5645H47.1911C47.6671 23.5646 48.1023 23.7451 48.4313 24.0405Z" fill="#76C7D9"/>
</g>
</svg>
