<svg width="66" height="65" viewBox="0 0 66 65" fill="none" xmlns="http://www.w3.org/2000/svg">
<g clip-path="url(#clip0)">
<path d="M52.6944 3.93186V53.9487L33.0005 57.562L13.3066 53.9487V3.93186C13.3066 1.7601 15.0938 0 17.299 0H48.7021C50.9072 0 52.6944 1.7601 52.6944 3.93186Z" fill="#DCF2EA"/>
<path d="M52.6939 3.93186V53.9487L33 57.562V0H48.7015C50.9067 0 52.6939 1.7601 52.6939 3.93186Z" fill="#B5E5D3"/>
<path d="M33.0002 17.0732C24.9133 17.0732 18.334 23.5528 18.334 31.5173V31.558C18.3573 39.5046 24.9275 45.9613 33.0002 45.9613C41.0768 45.9613 47.6496 39.4982 47.6665 31.5491V31.5173C47.6665 23.5528 41.0872 17.0732 33.0002 17.0732ZM22.3988 33.452H26.131C26.2863 36.1208 26.7613 38.6125 27.508 40.6529C24.8822 39.1146 22.9734 36.5121 22.3988 33.452ZM26.1297 29.6284H22.3897C22.954 26.5492 24.868 23.9276 27.508 22.3816C26.7561 24.4335 26.2812 26.943 26.1297 29.6284ZM33.0002 42.1377C32.4437 42.1377 30.4301 39.5594 30.0225 33.452H35.978C35.5794 39.4281 33.6033 42.1377 33.0002 42.1377ZM30.0199 29.6284C30.4003 23.7721 32.3454 20.8968 33.0002 20.8968C33.5645 20.8968 35.5833 23.5057 35.9806 29.6284H30.0199ZM38.4925 40.6529C39.2405 38.6125 39.7141 36.1208 39.8694 33.452H43.6016C43.027 36.5121 41.1195 39.1146 38.4925 40.6529ZM39.872 29.6284C39.7193 26.943 39.2443 24.4335 38.4925 22.3816C41.1325 23.9276 43.0465 26.5492 43.6107 29.6284H39.872Z" fill="#99DFEE"/>
<path d="M33 17.0732V20.8968C33.5642 20.8968 35.5831 23.5057 35.9804 29.6284H33V33.452H35.9778C35.5792 39.4281 33.6031 42.1377 33 42.1377V45.9613C41.0766 45.9613 47.6494 39.4982 47.6662 31.5491V31.5173C47.6662 23.5528 41.0869 17.0732 33 17.0732ZM38.4922 40.6529C39.2402 38.6125 39.7139 36.1208 39.8692 33.452H43.6014C43.0268 36.5121 41.1193 39.1146 38.4922 40.6529ZM39.8718 29.6284C39.7191 26.943 39.2441 24.4335 38.4922 22.3816C41.1322 23.9276 43.0462 26.5492 43.6105 29.6284H39.8718Z" fill="#57B0C4"/>
<path d="M52.6944 53.9492V61.0686C52.6944 63.2404 50.9072 65.0005 48.7021 65.0005H17.299C15.0938 65.0005 13.3066 63.2404 13.3066 61.0686V53.9492H52.6944Z" fill="#44446B"/>
<path d="M52.6939 53.9492V61.0686C52.6939 63.2404 50.9067 65.0005 48.7015 65.0005H33V53.9492H52.6939Z" fill="#35355E"/>
<path d="M39.8533 5.10059C38.7812 5.10059 37.9121 5.95655 37.9121 7.01235V7.57862C37.9121 8.63442 38.7812 9.49038 39.8533 9.49038C40.9253 9.49038 41.7945 8.63442 41.7945 7.57862V7.01235C41.7945 5.95655 40.9255 5.10059 39.8533 5.10059Z" fill="#35355E"/>
<path d="M45.8181 5.10059C44.7461 5.10059 43.877 5.95655 43.877 7.01235V7.57862C43.877 8.63442 44.7461 9.49038 45.8181 9.49038C46.8902 9.49038 47.7593 8.63442 47.7593 7.57862V7.01235C47.7593 5.95655 46.8902 5.10059 45.8181 5.10059Z" fill="#35355E"/>
<path d="M37.9984 59.4733C37.9984 60.5299 37.1287 61.3851 36.0572 61.3851H29.9412C28.8696 61.3851 28 60.5299 28 59.4733C28 58.418 28.8696 57.5615 29.9412 57.5615H36.0572C37.1287 57.5615 37.9984 58.418 37.9984 59.4733Z" fill="#DCF2EA"/>
<path d="M37.9992 59.4733C37.9992 60.5299 37.1295 61.3851 36.058 61.3851H33V57.5615H36.058C37.1295 57.5615 37.9992 58.418 37.9992 59.4733Z" fill="#B5E5D3"/>
</g>
</svg>
