<svg width="65" height="65" viewBox="0 0 65 65" fill="none" xmlns="http://www.w3.org/2000/svg">
<g clip-path="url(#clip0)">
<path d="M6.29057 0.904011L47.0379 41.6519L41.6519 47.0379L0.904011 6.29057C0.607953 5.99452 0.419508 5.59035 0.365454 5.15941L0.0153422 2.11601C-0.0649951 1.55068 0.177008 0.98534 0.581174 0.581174C0.98534 0.177008 1.55068 -0.0649951 2.11601 0.0153422L5.15941 0.36595C5.59035 0.419508 5.99452 0.607953 6.29057 0.904011Z" fill="#C6E2E7"/>
<path d="M0.581174 0.581055L44.3451 44.345L41.6519 47.0378L0.904011 6.29045C0.607953 5.9944 0.419508 5.59023 0.365454 5.15929L0.0153422 2.11589C-0.0649951 1.55056 0.177008 0.985221 0.581174 0.581055Z" fill="#8EBAC5"/>
<path d="M28.8057 42.056L36.2657 44.3451L44.3451 36.2657L42.056 28.8057C41.5442 27.5402 39.9012 27.2441 38.9585 28.1863L28.1863 38.9585C27.2441 39.9012 27.5402 41.5442 28.8057 42.056Z" fill="#5A5A5A"/>
<path d="M28.8057 42.0558L36.2657 44.3449L40.3054 40.3052L33.5724 33.5723L28.1863 38.9584C27.2441 39.9011 27.5402 41.544 28.8057 42.0558Z" fill="#292929"/>
<path d="M36.2661 49.7316L49.8586 63.324C52.0936 65.5591 55.7024 65.5591 57.9379 63.324L59.2843 61.9771L57.9379 57.9374L61.9776 59.2843L63.324 57.9374C65.5591 55.7024 65.5591 52.0936 63.324 49.8586L49.7316 36.2661C47.496 34.0311 43.8878 34.0311 41.6522 36.2661L40.3058 37.6125L41.6522 41.6522L37.6125 40.3058L36.2661 41.6522C34.0311 43.8878 34.0311 47.496 36.2661 49.7316Z" fill="#CAF5FF"/>
<path d="M36.2661 49.7314L49.8586 63.3239C52.0936 65.5589 55.7024 65.5589 57.9379 63.3239L59.2843 61.977L57.9379 57.9373L41.6522 41.6521L37.6125 40.3057L36.2661 41.6521C34.0311 43.8876 34.0311 47.4959 36.2661 49.7314Z" fill="#78C8DA"/>
<path d="M37.6113 40.3056L40.3046 37.6123L61.9759 59.2841L59.2826 61.9769L37.6113 40.3056Z" fill="#DEF9FF"/>
<path d="M37.6113 40.3054L38.9577 38.959L60.6295 60.6303L59.2826 61.9767L37.6113 40.3054Z" fill="#4D919F"/>
<path d="M23.3477 36.2659L47.8665 11.7471L53.2526 17.1332L28.7337 41.652L23.3477 36.2659Z" fill="#C6E2E7"/>
<path d="M26.041 38.9583L50.5603 14.4395L53.2531 17.1322L28.7343 41.6516L26.041 38.9583Z" fill="#8EBAC5"/>
<path d="M36.1932 42.056L28.7332 44.3451L20.6543 36.2657L22.9434 28.8057C23.4552 27.5402 25.0977 27.2441 26.0404 28.1863L36.8125 38.9585C37.7553 39.9012 37.4592 41.5442 36.1932 42.056Z" fill="#6E6E6E"/>
<path d="M36.1945 42.0558L28.7345 44.3449L24.6953 40.3052L31.4278 33.5723L36.8139 38.9584C37.7566 39.9011 37.4605 41.544 36.1945 42.0558Z" fill="#444444"/>
<path d="M28.7342 49.731L15.1423 63.3234C12.9067 65.5585 9.29795 65.5585 7.06288 63.3234L5.71599 61.9765L7.06288 57.9368L3.0232 59.2837L1.6763 57.9368C-0.558767 55.7018 -0.558767 52.093 1.6763 49.858L15.2687 36.2655C17.5043 34.03 21.113 34.03 23.3481 36.2655L24.695 37.6119L23.3481 41.6516L27.3878 40.3052L28.7342 41.6516C30.9697 43.8872 30.9697 47.4954 28.7342 49.731Z" fill="#CAF5FF"/>
<path d="M28.733 49.7314L15.1411 63.3239C12.9055 65.5589 9.29681 65.5589 7.06174 63.3239L5.71484 61.977L7.06174 57.9373L23.3469 41.6521L27.3866 40.3057L28.733 41.6521C30.9686 43.8876 30.9686 47.4959 28.733 49.7314Z" fill="#78C8DA"/>
<path d="M3.02344 59.2836L24.6952 37.6123L27.388 40.3056L5.71673 61.9769L3.02344 59.2836Z" fill="#DEF9FF"/>
<path d="M4.36914 60.6303L26.0409 38.959L27.3873 40.3059L5.71603 61.9772L4.36914 60.6303Z" fill="#4D919F"/>
<path d="M57.9658 17.375L50.5599 19.8258L45.1738 14.4398L47.6246 7.03383C47.7863 6.60288 48.0823 6.25277 48.4592 5.98349L58.8471 0.282003C59.5741 -0.176218 60.5436 -0.0686058 61.163 0.550786L64.4484 3.83669C65.0678 4.45608 65.1759 5.42509 64.7177 6.15259L59.0162 16.5399C58.7469 16.9173 58.3968 17.2134 57.9658 17.375Z" fill="#DEECF1"/>
<path d="M50.5605 19.8264L47.8672 17.1331L62.8065 2.19434L64.4489 3.83729C65.0683 4.45668 65.1764 5.42569 64.7182 6.15319L59.0167 16.5405C58.7475 16.9179 58.3973 17.214 57.9664 17.3756L50.5605 19.8264Z" fill="#A8D3D8"/>
</g>
</svg>
