<svg width="58" height="41" viewBox="0 0 58 41" fill="none" xmlns="http://www.w3.org/2000/svg">
<path opacity="0.2" d="M47.536 20.496L42.208 21.36C39.712 21.36 37.456 20.544 35.44 18.912C33.52 17.184 32.56 14.736 32.56 11.568C32.56 8.30399 33.616 5.56799 35.728 3.35999C37.84 1.152 40.768 0.0479994 44.512 0.0479994C48.352 0.0479994 51.472 1.488 53.872 4.368C56.368 7.248 57.616 10.992 57.616 15.6C57.616 20.112 55.84 24.624 52.288 29.136C48.832 33.648 43.84 37.392 37.312 40.368L36.304 37.92C45.328 32.928 49.84 27.888 49.84 22.8C49.84 21.264 49.072 20.496 47.536 20.496ZM15.856 20.496L10.528 21.36C8.032 21.36 5.776 20.544 3.76 18.912C1.84 17.184 0.88 14.736 0.88 11.568C0.88 8.30399 1.936 5.56799 4.048 3.35999C6.16 1.152 9.088 0.0479994 12.832 0.0479994C16.672 0.0479994 19.792 1.488 22.192 4.368C24.688 7.248 25.936 10.992 25.936 15.6C25.936 20.112 24.16 24.624 20.608 29.136C17.152 33.648 12.16 37.392 5.632 40.368L4.624 37.92C13.648 32.928 18.16 27.888 18.16 22.8C18.16 21.264 17.392 20.496 15.856 20.496Z" fill="#29C9A1"/>
</svg>
